<?xml version="1.0" encoding="UTF-8"?>
<mxfile host="app.diagrams.net" modified="2025-06-20T00:00:00.000Z" agent="5.0" etag="abc123" version="24.5.4" type="device" pages="4">
  <diagram name="1. High-Level Architecture" id="page1">
    <mxGraphModel dx="1422" dy="794" grid="1" gridSize="10" guides="1" tooltips="1" connect="1" arrows="1" fold="1" page="1" pageScale="1" pageWidth="1169" pageHeight="827" math="0" shadow="0">
      <root>
        <mxCell id="0" />
        <mxCell id="1" parent="0" />
        
        <!-- Title -->
        <mxCell id="title1" value="Industry-Readiness Combat Simulator - System Architecture" style="text;html=1;strokeColor=none;fillColor=none;align=center;verticalAlign=middle;whiteSpace=wrap;rounded=0;fontSize=20;fontStyle=1;" vertex="1" parent="1">
          <mxGeometry x="300" y="20" width="570" height="40" as="geometry" />
        </mxCell>
        
        <!-- Frontend Layer -->
        <mxCell id="frontend-container" value="FRONTEND (React + shadcn/ui)" style="rounded=1;whiteSpace=wrap;html=1;fillColor=#E3F2FD;strokeColor=#1976D2;fontSize=14;fontStyle=1;verticalAlign=top;spacingTop=10;" vertex="1" parent="1">
          <mxGeometry x="100" y="80" width="970" height="120" as="geometry" />
        </mxCell>
        
        <mxCell id="frontend-upload" value="File Upload&#xa;Component" style="rounded=1;whiteSpace=wrap;html=1;fillColor=#BBDEFB;strokeColor=#1976D2;" vertex="1" parent="1">
          <mxGeometry x="140" y="120" width="120" height="60" as="geometry" />
        </mxCell>
        
        <mxCell id="frontend-scenario" value="Scenario Select&#xa;Component" style="rounded=1;whiteSpace=wrap;html=1;fillColor=#BBDEFB;strokeColor=#1976D2;" vertex="1" parent="1">
          <mxGeometry x="300" y="120" width="120" height="60" as="geometry" />
        </mxCell>
        
        <mxCell id="frontend-response" value="Response&#xa;Submission" style="rounded=1;whiteSpace=wrap;html=1;fillColor=#BBDEFB;strokeColor=#1976D2;" vertex="1" parent="1">
          <mxGeometry x="460" y="120" width="120" height="60" as="geometry" />
        </mxCell>
        
        <mxCell id="frontend-results" value="Results&#xa;Dashboard" style="rounded=1;whiteSpace=wrap;html=1;fillColor=#BBDEFB;strokeColor=#1976D2;" vertex="1" parent="1">
          <mxGeometry x="620" y="120" width="120" height="60" as="geometry" />
        </mxCell>
        
        <mxCell id="frontend-auth" value="Authentication&#xa;Component" style="rounded=1;whiteSpace=wrap;html=1;fillColor=#BBDEFB;strokeColor=#1976D2;" vertex="1" parent="1">
          <mxGeometry x="780" y="120" width="120" height="60" as="geometry" />
        </mxCell>
        
        <!-- API Connection -->
        <mxCell id="api-connection" value="HTTP API Calls&#xa;(REST)" style="edgeStyle=orthogonalEdgeStyle;rounded=0;orthogonalLoop=1;jettySize=auto;html=1;strokeWidth=3;strokeColor=#FF5722;fontSize=12;fontStyle=1;" edge="1" parent="1">
          <mxGeometry relative="1" as="geometry">
            <mxPoint x="585" y="200" as="sourcePoint" />
            <mxPoint x="585" y="240" as="targetPoint" />
          </mxGeometry>
        </mxCell>
        
        <!-- Backend Layer -->
        <mxCell id="backend-container" value="BACKEND (Python + FastAPI)" style="rounded=1;whiteSpace=wrap;html=1;fillColor=#E8F5E8;strokeColor=#388E3C;fontSize=14;fontStyle=1;verticalAlign=top;spacingTop=10;" vertex="1" parent="1">
          <mxGeometry x="100" y="240" width="970" height="280" as="geometry" />
        </mxCell>
        
        <!-- AI Agents Section -->
        <mxCell id="agents-section" value="AI AGENTS ORCHESTRATION (CrewAI)" style="rounded=1;whiteSpace=wrap;html=1;fillColor=#C8E6C9;strokeColor=#388E3C;fontSize=12;fontStyle=1;verticalAlign=top;spacingTop=10;" vertex="1" parent="1">
          <mxGeometry x="120" y="280" width="930" height="180" as="geometry" />
        </mxCell>
        
        <!-- Row 1: Input Agents -->
        <mxCell id="agent1" value="1. Scenario&#xa;Generator&#xa;(RAG-enabled)" style="rounded=1;whiteSpace=wrap;html=1;fillColor=#81C784;strokeColor=#388E3C;" vertex="1" parent="1">
          <mxGeometry x="140" y="310" width="100" height="60" as="geometry" />
        </mxCell>
        
        <mxCell id="agent2" value="2. Challenge&#xa;Presenter" style="rounded=1;whiteSpace=wrap;html=1;fillColor=#81C784;strokeColor=#388E3C;" vertex="1" parent="1">
          <mxGeometry x="260" y="310" width="100" height="60" as="geometry" />
        </mxCell>
        
        <mxCell id="agent3" value="3. Response&#xa;Collector" style="rounded=1;whiteSpace=wrap;html=1;fillColor=#81C784;strokeColor=#388E3C;" vertex="1" parent="1">
          <mxGeometry x="380" y="310" width="100" height="60" as="geometry" />
        </mxCell>
        
        <!-- Row 2: Processing Agents -->
        <mxCell id="agent4" value="4. LLM&#xa;Evaluation" style="rounded=1;whiteSpace=wrap;html=1;fillColor=#66BB6A;strokeColor=#388E3C;" vertex="1" parent="1">
          <mxGeometry x="520" y="310" width="100" height="60" as="geometry" />
        </mxCell>
        
        <mxCell id="agent5" value="5. Gap&#xa;Diagnosis" style="rounded=1;whiteSpace=wrap;html=1;fillColor=#66BB6A;strokeColor=#388E3C;" vertex="1" parent="1">
          <mxGeometry x="640" y="310" width="100" height="60" as="geometry" />
        </mxCell>
        
        <mxCell id="agent6" value="6. Training&#xa;Recommender&#xa;(RAG-enabled)" style="rounded=1;whiteSpace=wrap;html=1;fillColor=#66BB6A;strokeColor=#388E3C;" vertex="1" parent="1">
          <mxGeometry x="760" y="310" width="100" height="60" as="geometry" />
        </mxCell>
        
        <!-- Agent Flow Arrows -->
        <mxCell id="flow1" value="" style="edgeStyle=orthogonalEdgeStyle;rounded=0;orthogonalLoop=1;jettySize=auto;html=1;strokeWidth=2;strokeColor=#2E7D32;" edge="1" parent="1" source="agent1" target="agent2">
          <mxGeometry relative="1" as="geometry" />
        </mxCell>
        
        <mxCell id="flow2" value="" style="edgeStyle=orthogonalEdgeStyle;rounded=0;orthogonalLoop=1;jettySize=auto;html=1;strokeWidth=2;strokeColor=#2E7D32;" edge="1" parent="1" source="agent2" target="agent3">
          <mxGeometry relative="1" as="geometry" />
        </mxCell>
        
        <mxCell id="flow3" value="" style="edgeStyle=orthogonalEdgeStyle;rounded=0;orthogonalLoop=1;jettySize=auto;html=1;strokeWidth=2;strokeColor=#2E7D32;" edge="1" parent="1" source="agent3" target="agent4">
          <mxGeometry relative="1" as="geometry" />
        </mxCell>
        
        <mxCell id="flow4" value="" style="edgeStyle=orthogonalEdgeStyle;rounded=0;orthogonalLoop=1;jettySize=auto;html=1;strokeWidth=2;strokeColor=#2E7D32;" edge="1" parent="1" source="agent4" target="agent5">
          <mxGeometry relative="1" as="geometry" />
        </mxCell>
        
        <mxCell id="flow5" value="" style="edgeStyle=orthogonalEdgeStyle;rounded=0;orthogonalLoop=1;jettySize=auto;html=1;strokeWidth=2;strokeColor=#2E7D32;" edge="1" parent="1" source="agent5" target="agent6">
          <mxGeometry relative="1" as="geometry" />
        </mxCell>
        
        <!-- LLM Service -->
        <mxCell id="llm-service" value="LLM SERVICE&#xa;(Gemini-1.5-flash)" style="ellipse;whiteSpace=wrap;html=1;fillColor=#FFCDD2;strokeColor=#D32F2F;fontSize=12;fontStyle=1;" vertex="1" parent="1">
          <mxGeometry x="450" y="390" width="140" height="60" as="geometry" />
        </mxCell>
        
        <!-- LLM Connections to Agents -->
        <mxCell id="llm-conn1" value="" style="edgeStyle=orthogonalEdgeStyle;rounded=0;orthogonalLoop=1;jettySize=auto;html=1;strokeWidth=1;strokeColor=#D32F2F;dashed=1;" edge="1" parent="1" source="llm-service" target="agent1">
          <mxGeometry relative="1" as="geometry" />
        </mxCell>
        
        <mxCell id="llm-conn4" value="" style="edgeStyle=orthogonalEdgeStyle;rounded=0;orthogonalLoop=1;jettySize=auto;html=1;strokeWidth=1;strokeColor=#D32F2F;dashed=1;" edge="1" parent="1" source="llm-service" target="agent4">
          <mxGeometry relative="1" as="geometry" />
        </mxCell>
        
        <mxCell id="llm-conn6" value="" style="edgeStyle=orthogonalEdgeStyle;rounded=0;orthogonalLoop=1;jettySize=auto;html=1;strokeWidth=1;strokeColor=#D32F2F;dashed=1;" edge="1" parent="1" source="llm-service" target="agent6">
          <mxGeometry relative="1" as="geometry" />
        </mxCell>
        
        <!-- Database Connection -->
        <mxCell id="db-connection" value="Vector Search &amp; Storage&#xa;(Embeddings)" style="edgeStyle=orthogonalEdgeStyle;rounded=0;orthogonalLoop=1;jettySize=auto;html=1;strokeWidth=3;strokeColor=#FF9800;fontSize=12;fontStyle=1;" edge="1" parent="1">
          <mxGeometry relative="1" as="geometry">
            <mxPoint x="585" y="520" as="sourcePoint" />
            <mxPoint x="585" y="560" as="targetPoint" />
          </mxGeometry>
        </mxCell>
        
        <!-- Database Layer -->
        <mxCell id="database-container" value="WEAVIATE CLOUD DATABASE" style="rounded=1;whiteSpace=wrap;html=1;fillColor=#FFF3E0;strokeColor=#F57C00;fontSize=14;fontStyle=1;verticalAlign=top;spacingTop=10;" vertex="1" parent="1">
          <mxGeometry x="100" y="560" width="970" height="120" as="geometry" />
        </mxCell>
        
        <mxCell id="scenarios-collection" value="Scenarios&#xa;Collection&#xa;(Vector Embeddings)" style="shape=cylinder3;whiteSpace=wrap;html=1;boundedLbl=1;backgroundOutline=1;size=15;fillColor=#FFE0B2;strokeColor=#F57C00;" vertex="1" parent="1">
          <mxGeometry x="300" y="600" width="120" height="60" as="geometry" />
        </mxCell>
        
        <mxCell id="resources-collection" value="Training Resources&#xa;Collection&#xa;(Vector Embeddings)" style="shape=cylinder3;whiteSpace=wrap;html=1;boundedLbl=1;backgroundOutline=1;size=15;fillColor=#FFE0B2;strokeColor=#F57C00;" vertex="1" parent="1">
          <mxGeometry x="750" y="600" width="120" height="60" as="geometry" />
        </mxCell>
        
        <!-- CSV Data Input -->
        <mxCell id="csv-container" value="CSV DATA FILES" style="rounded=1;whiteSpace=wrap;html=1;fillColor=#F5F5F5;strokeColor=#616161;fontSize=14;fontStyle=1;verticalAlign=top;spacingTop=10;" vertex="1" parent="1">
          <mxGeometry x="100" y="720" width="970" height="80" as="geometry" />
        </mxCell>
        
        <mxCell id="scenarios-csv" value="scenarios.csv&#xa;(roles, tasks, difficulty)" style="rounded=1;whiteSpace=wrap;html=1;fillColor=#EEEEEE;strokeColor=#616161;" vertex="1" parent="1">
          <mxGeometry x="200" y="750" width="150" height="40" as="geometry" />
        </mxCell>
        
        <mxCell id="resources-csv" value="training_resources.csv&#xa;(courses, tutorials, projects)" style="rounded=1;whiteSpace=wrap;html=1;fillColor=#EEEEEE;strokeColor=#616161;" vertex="1" parent="1">
          <mxGeometry x="420" y="750" width="180" height="40" as="geometry" />
        </mxCell>
        
        <mxCell id="students-csv" value="students.csv&#xa;(profiles, preferences)" style="rounded=1;whiteSpace=wrap;html=1;fillColor=#EEEEEE;strokeColor=#616161;" vertex="1" parent="1">
          <mxGeometry x="670" y="750" width="150" height="40" as="geometry" />
        </mxCell>
        
        <!-- CSV to Database Arrows -->
        <mxCell id="csv-to-db1" value="" style="edgeStyle=orthogonalEdgeStyle;rounded=0;orthogonalLoop=1;jettySize=auto;html=1;strokeWidth=2;strokeColor=#757575;" edge="1" parent="1" source="scenarios-csv" target="scenarios-collection">
          <mxGeometry relative="1" as="geometry" />
        </mxCell>
        
        <mxCell id="csv-to-db2" value="" style="edgeStyle=orthogonalEdgeStyle;rounded=0;orthogonalLoop=1;jettySize=auto;html=1;strokeWidth=2;strokeColor=#757575;" edge="1" parent="1" source="resources-csv" target="resources-collection">
          <mxGeometry relative="1" as="geometry" />
        </mxCell>
        
      </root>
    </mxGraphModel>
  </diagram>
  
  <diagram name="2. Agent Workflow Detail" id="page2">
    <mxGraphModel dx="1422" dy="794" grid="1" gridSize="10" guides="1" tooltips="1" connect="1" arrows="1" fold="1" page="1" pageScale="1" pageWidth="1169" pageHeight="827" math="0" shadow="0">
      <root>
        <mxCell id="0" />
        <mxCell id="1" parent="0" />
        
        <!-- Title -->
        <mxCell id="title2" value="AI Agents Workflow - Detailed Process Flow" style="text;html=1;strokeColor=none;fillColor=none;align=center;verticalAlign=middle;whiteSpace=wrap;rounded=0;fontSize=20;fontStyle=1;" vertex="1" parent="1">
          <mxGeometry x="300" y="20" width="570" height="40" as="geometry" />
        </mxCell>
        
        <!-- Student Input -->
        <mxCell id="student-input" value="STUDENT INPUT&#xa;Profile + Response" style="rounded=1;whiteSpace=wrap;html=1;fillColor=#E1F5FE;strokeColor=#0277BD;fontSize=12;fontStyle=1;" vertex="1" parent="1">
          <mxGeometry x="50" y="100" width="120" height="60" as="geometry" />
        </mxCell>
        
        <!-- CSV Data Upload -->
        <mxCell id="csv-upload" value="CSV UPLOAD&#xa;Scenarios &amp; Resources" style="rounded=1;whiteSpace=wrap;html=1;fillColor=#F3E5F5;strokeColor=#7B1FA2;fontSize=12;fontStyle=1;" vertex="1" parent="1">
          <mxGeometry x="50" y="200" width="120" height="60" as="geometry" />
        </mxCell>
        
        <!-- Vector Store -->
        <mxCell id="vector-store" value="WEAVIATE&#xa;VECTOR STORE&#xa;(Embeddings)" style="shape=cylinder3;whiteSpace=wrap;html=1;boundedLbl=1;backgroundOutline=1;size=15;fillColor=#FFF8E1;strokeColor=#F57F17;fontSize=12;fontStyle=1;" vertex="1" parent="1">
          <mxGeometry x="220" y="200" width="100" height="80" as="geometry" />
        </mxCell>
        
        <!-- Agent 1: Scenario Generator -->
        <mxCell id="agent1-detail" value="AGENT 1&#xa;Scenario Generator&#xa;(RAG-enabled)&#xa;&#xa;• Query vector store&#xa;• Generate scenarios&#xa;• LLM processing" style="rounded=1;whiteSpace=wrap;html=1;fillColor=#E8F5E8;strokeColor=#388E3C;fontSize=10;align=left;spacingLeft=10;" vertex="1" parent="1">
          <mxGeometry x="370" y="80" width="140" height="100" as="geometry" />
        </mxCell>
        
        <!-- Agent 2: Challenge Presenter -->
        <mxCell id="agent2-detail" value="AGENT 2&#xa;Challenge Presenter&#xa;&#xa;• Adapt difficulty&#xa;• Set constraints&#xa;• Create instructions" style="rounded=1;whiteSpace=wrap;html=1;fillColor=#E8F5E8;strokeColor=#388E3C;fontSize=10;align=left;spacingLeft=10;" vertex="1" parent="1">
          <mxGeometry x="540" y="80" width="140" height="100" as="geometry" />
        </mxCell>
        
        <!-- Student Response Collection -->
        <mxCell id="response-collection" value="STUDENT RESPONSE&#xa;SUBMISSION&#xa;&#xa;• Code/Documents&#xa;• File uploads&#xa;• Text responses" style="rounded=1;whiteSpace=wrap;html=1;fillColor=#FFF3E0;strokeColor=#F57C00;fontSize=10;align=left;spacingLeft=10;" vertex="1" parent="1">
          <mxGeometry x="710" y="80" width="140" height="100" as="geometry" />
        </mxCell>
        
        <!-- Agent 3: Response Collector -->
        <mxCell id="agent3-detail" value="AGENT 3&#xa;Response Collector&#xa;&#xa;• Validate input&#xa;• Process content&#xa;• Structure data" style="rounded=1;whiteSpace=wrap;html=1;fillColor=#E8F5E8;strokeColor=#388E3C;fontSize=10;align=left;spacingLeft=10;" vertex="1" parent="1">
          <mxGeometry x="880" y="80" width="140" height="100" as="geometry" />
        </mxCell>
        
        <!-- Agent 4: Evaluation -->
        <mxCell id="agent4-detail" value="AGENT 4&#xa;LLM Evaluation&#xa;&#xa;• Apply rubrics&#xa;• Score responses&#xa;• Generate feedback&#xa;• Calculate grades" style="rounded=1;whiteSpace=wrap;html=1;fillColor=#FFEBEE;strokeColor=#C62828;fontSize=10;align=left;spacingLeft=10;" vertex="1" parent="1">
          <mxGeometry x="880" y="220" width="140" height="100" as="geometry" />
        </mxCell>
        
        <!-- Agent 5: Gap Diagnosis -->
        <mxCell id="agent5-detail" value="AGENT 5&#xa;Gap Diagnosis&#xa;&#xa;• Identify weaknesses&#xa;• Categorize gaps&#xa;• Set priorities&#xa;• Assess urgency" style="rounded=1;whiteSpace=wrap;html=1;fillColor=#FFEBEE;strokeColor=#C62828;fontSize=10;align=left;spacingLeft=10;" vertex="1" parent="1">
          <mxGeometry x="710" y="220" width="140" height="100" as="geometry" />
        </mxCell>
        
        <!-- Agent 6: Training Recommender -->
        <mxCell id="agent6-detail" value="AGENT 6&#xa;Training Recommender&#xa;(RAG-enabled)&#xa;&#xa;• Search resources&#xa;• Match to gaps&#xa;• Create learning paths&#xa;• Estimate timelines" style="rounded=1;whiteSpace=wrap;html=1;fillColor=#FFEBEE;strokeColor=#C62828;fontSize=10;align=left;spacingLeft=10;" vertex="1" parent="1">
          <mxGeometry x="540" y="220" width="140" height="100" as="geometry" />
        </mxCell>
        
        <!-- Results Output -->
        <mxCell id="results-output" value="RESULTS OUTPUT&#xa;&#xa;• Evaluation scores&#xa;• Skill gap analysis&#xa;• Learning recommendations&#xa;• Progress tracking" style="rounded=1;whiteSpace=wrap;html=1;fillColor=#F3E5F5;strokeColor=#7B1FA2;fontSize=10;align=left;spacingLeft=10;" vertex="1" parent="1">
          <mxGeometry x="370" y="220" width="140" height="100" as="geometry" />
        </mxCell>
        
        <!-- Gemini LLM (Center) -->
        <mxCell id="gemini-llm" value="GEMINI LLM&#xa;1.5-FLASH&#xa;&#xa;Processing Engine" style="ellipse;whiteSpace=wrap;html=1;fillColor=#FCE4EC;strokeColor=#AD1457;fontSize=12;fontStyle=1;" vertex="1" parent="1">
          <mxGeometry x="580" y="360" width="140" height="80" as="geometry" />
        </mxCell>
        
        <!-- Flow Arrows -->
        <mxCell id="flow-1-2" value="Generated&#xa;Scenarios" style="edgeStyle=orthogonalEdgeStyle;rounded=0;orthogonalLoop=1;jettySize=auto;html=1;strokeWidth=2;strokeColor=#2E7D32;fontSize=10;" edge="1" parent="1" source="agent1-detail" target="agent2-detail">
          <mxGeometry relative="1" as="geometry">
            <mxPoint x="525" y="100" as="offset" />
          </mxGeometry>
        </mxCell>
        
        <mxCell id="flow-2-response" value="Adapted&#xa;Challenge" style="edgeStyle=orthogonalEdgeStyle;rounded=0;orthogonalLoop=1;jettySize=auto;html=1;strokeWidth=2;strokeColor=#2E7D32;fontSize=10;" edge="1" parent="1" source="agent2-detail" target="response-collection">
          <mxGeometry relative="1" as="geometry">
            <mxPoint x="695" y="100" as="offset" />
          </mxGeometry>
        </mxCell>
        
        <mxCell id="flow-response-3" value="Student&#xa;Submission" style="edgeStyle=orthogonalEdgeStyle;rounded=0;orthogonalLoop=1;jettySize=auto;html=1;strokeWidth=2;strokeColor=#2E7D32;fontSize=10;" edge="1" parent="1" source="response-collection" target="agent3-detail">
          <mxGeometry relative="1" as="geometry">
            <mxPoint x="865" y="100" as="offset" />
          </mxGeometry>
        </mxCell>
        
        <mxCell id="flow-3-4" value="Structured&#xa;Response" style="edgeStyle=orthogonalEdgeStyle;rounded=0;orthogonalLoop=1;jettySize=auto;html=1;strokeWidth=2;strokeColor=#C62828;fontSize=10;" edge="1" parent="1" source="agent3-detail" target="agent4-detail">
          <mxGeometry relative="1" as="geometry">
            <mxPoint x="965" y="190" as="offset" />
          </mxGeometry>
        </mxCell>
        
        <mxCell id="flow-4-5" value="Evaluation&#xa;Results" style="edgeStyle=orthogonalEdgeStyle;rounded=0;orthogonalLoop=1;jettySize=auto;html=1;strokeWidth=2;strokeColor=#C62828;fontSize=10;" edge="1" parent="1" source="agent4-detail" target="agent5-detail">
          <mxGeometry relative="1" as="geometry">
            <mxPoint x="825" y="270" as="offset" />
          </mxGeometry>
        </mxCell>
        
        <mxCell id="flow-5-6" value="Gap&#xa;Analysis" style="edgeStyle=orthogonalEdgeStyle;rounded=0;orthogonalLoop=1;jettySize=auto;html=1;strokeWidth=2;strokeColor=#C62828;fontSize=10;" edge="1" parent="1" source="agent5-detail" target="agent6-detail">
          <mxGeometry relative="1" as="geometry">
            <mxPoint x="655" y="270" as="offset" />
          </mxGeometry>
        </mxCell>
        
        <mxCell id="flow-6-results" value="Training&#xa;Recommendations" style="edgeStyle=orthogonalEdgeStyle;rounded=0;orthogonalLoop=1;jettySize=auto;html=1;strokeWidth=2;strokeColor=#C62828;fontSize=10;" edge="1" parent="1" source="agent6-detail" target="results-output">
          <mxGeometry relative="1" as="geometry">
            <mxPoint x="485" y="270" as="offset" />
          </mxGeometry>
        </mxCell>
        
        <!-- Input Connections -->
        <mxCell id="input-agent1" value="Student&#xa;Profile" style="edgeStyle=orthogonalEdgeStyle;rounded=0;orthogonalLoop=1;jettySize=auto;html=1;strokeWidth=2;strokeColor=#0277BD;fontSize=10;" edge="1" parent="1" source="student-input" target="agent1-detail">
          <mxGeometry relative="1" as="geometry">
            <mxPoint x="285" y="110" as="offset" />
          </mxGeometry>
        </mxCell>
        
        <mxCell id="csv-vector" value="Data&#xa;Ingestion" style="edgeStyle=orthogonalEdgeStyle;rounded=0;orthogonalLoop=1;jettySize=auto;html=1;strokeWidth=2;strokeColor=#7B1FA2;fontSize=10;" edge="1" parent="1" source="csv-upload" target="vector-store">
          <mxGeometry relative="1" as="geometry">
            <mxPoint x="185" y="230" as="offset" />
          </mxGeometry>
        </mxCell>
        
        <mxCell id="vector-agent1" value="RAG&#xa;Search" style="edgeStyle=orthogonalEdgeStyle;rounded=0;orthogonalLoop=1;jettySize=auto;html=1;strokeWidth=2;strokeColor=#F57F17;fontSize=10;dashed=1;" edge="1" parent="1" source="vector-store" target="agent1-detail">
          <mxGeometry relative="1" as="geometry">
            <mxPoint x="335" y="180" as="offset" />
          </mxGeometry>
        </mxCell>
        
        <mxCell id="vector-agent6" value="RAG&#xa;Search" style="edgeStyle=orthogonalEdgeStyle;rounded=0;orthogonalLoop=1;jettySize=auto;html=1;strokeWidth=2;strokeColor=#F57F17;fontSize=10;dashed=1;" edge="1" parent="1" source="vector-store" target="agent6-detail">
          <mxGeometry relative="1" as="geometry">
            <mxPoint x="400" y="240" as="offset" />
          </mxGeometry>
        </mxCell>
        
        <!-- LLM Connections -->
        <mxCell id="llm-agent1" value="" style="edgeStyle=orthogonalEdgeStyle;rounded=0;orthogonalLoop=1;jettySize=auto;html=1;strokeWidth=1;strokeColor=#AD1457;dashed=1;" edge="1" parent="1" source="gemini-llm" target="agent1-detail">
          <mxGeometry relative="1" as="geometry" />
        </mxCell>
        
        <mxCell id="llm-agent4" value="" style="edgeStyle=orthogonalEdgeStyle;rounded=0;orthogonalLoop=1;jettySize=auto;html=1;strokeWidth=1;strokeColor=#AD1457;dashed=1;" edge="1" parent="1" source="gemini-llm" target="agent4-detail">
          <mxGeometry relative="1" as="geometry" />
        </mxCell>
        
        <mxCell id="llm-agent6" value="" style="edgeStyle=orthogonalEdgeStyle;rounded=0;orthogonalLoop=1;jettySize=auto;html=1;strokeWidth=1;strokeColor=#AD1457;dashed=1;" edge="1" parent="1" source="gemini-llm" target="agent6-detail">
          <mxGeometry relative="1" as="geometry" />
        </mxCell>
        
        <!-- Legend -->
        <mxCell id="legend" value="LEGEND" style="rounded=1;whiteSpace=wrap;html=1;fillColor=#F5F5F5;strokeColor=#666666;fontSize=12;fontStyle=1;verticalAlign=top;spacingTop=10;" vertex="1" parent="1">
          <mxGeometry x="50" y="480" width="200" height="120" as="geometry" />
        </mxCell>
        
        <mxCell id="legend-input" value="Input Processing" style="rounded=1;whiteSpace=wrap;html=1;fillColor=#E8F5E8;strokeColor=#388E3C;fontSize=10;" vertex="1" parent="1">
          <mxGeometry x="60" y="510" width="80" height="20" as="geometry" />
        </mxCell>
        
        <mxCell id="legend-evaluation" value="Evaluation" style="rounded=1;whiteSpace=wrap;html=1;fillColor=#FFEBEE;strokeColor=#C62828;fontSize=10;" vertex="1" parent="1">
          <mxGeometry x="150" y="510" width="80" height="20" as="geometry" />
        </mxCell>
        
        <mxCell id="legend-llm" value="LLM Processing" style="rounded=1;whiteSpace=wrap;html=1;fillColor=#FCE4EC;strokeColor=#AD1457;fontSize=10;" vertex="1" parent="1">
          <mxGeometry x="60" y="540" width="80" height="20" as="geometry" />
        </mxCell>
        
        <mxCell id="legend-rag" value="RAG Search" style="rounded=1;whiteSpace=wrap;html=1;fillColor=#FFF8E1;strokeColor=#F57F17;fontSize=10;" vertex="1" parent="1">
          <mxGeometry x="150" y="540" width="80" height="20" as="geometry" />
        </mxCell>
        
        <mxCell id="legend-flow" value="Data Flow" style="text;html=1;strokeColor=#2E7D32;fillColor=none;align=left;verticalAlign=middle;whiteSpace=wrap;rounded=0;fontSize=10;" vertex="1" parent="1">
          <mxGeometry x="80" y="570" width="60" height="20" as="geometry" />
        </mxCell>
        
        <mxCell id="legend-flow-line" value="" style="edgeStyle=orthogonalEdgeStyle;rounded=0;orthogonalLoop=1;jettySize=auto;html=1;strokeWidth=2;strokeColor=#2E7D32;" edge="1" parent="1">
          <mxGeometry relative="1" as="geometry">
            <mxPoint x="60" y="580" as="sourcePoint" />
            <mxPoint x="120" y="580" as="targetPoint" />
          </mxGeometry>
        </mxCell>
        
      </root>
    </mxGraphModel>
  </diagram>
  
  <diagram name="3. Data Flow Process" id="page3">
    <mxGraphModel dx="1422" dy="794" grid="1" gridSize="10" guides="1" tooltips="1" connect="1" arrows="1" fold="1" page="1" pageScale="1" pageWidth="1169" pageHeight="827" math="0" shadow="0">
      <root>
        <mxCell id="0" />
        <mxCell id="1" parent="0" />
        
        <!-- Title -->
        <mxCell id="title3" value="Data Flow Process - Complete User Journey" style="text;html=1;strokeColor=none;fillColor=none;align=center;verticalAlign=middle;whiteSpace=wrap;rounded=0;fontSize=20;fontStyle=1;" vertex="1" parent="1">
          <mxGeometry x="300" y="20" width="570" height="40" as="geometry" />
        </mxCell>
        
        <!-- Swimlanes Headers -->
        <mxCell id="student-lane" value="STUDENT ACTIONS" style="rounded=0;whiteSpace=wrap;html=1;fillColor=#E3F2FD;strokeColor=#1976D2;fontSize=12;fontStyle=1;" vertex="1" parent="1">
          <mxGeometry x="40" y="80" width="150" height="40" as="geometry" />
        </mxCell>
        
        <mxCell id="system-lane" value="SYSTEM PROCESSING" style="rounded=0;whiteSpace=wrap;html=1;fillColor=#E8F5E8;strokeColor=#388E3C;fontSize=12;fontStyle=1;" vertex="1" parent="1">
          <mxGeometry x="190" y="80" width="600" height="40" as="geometry" />
        </mxCell>
        
        <mxCell id="ai-lane" value="AI AGENTS" style="rounded=0;whiteSpace=wrap;html=1;fillColor=#FFEBEE;strokeColor=#C62828;fontSize=12;fontStyle=1;" vertex="1" parent="1">
          <mxGeometry x="790" y="80" width="300" height="40" as="geometry" />
        </mxCell>
        
        <!-- Phase 1: Input -->
        <mxCell id="phase1-label" value="PHASE 1: INPUT" style="text;html=1;strokeColor=none;fillColor=#FFF3E0;align=center;verticalAlign=middle;whiteSpace=wrap;rounded=1;fontSize=12;fontStyle=1;" vertex="1" parent="1">
          <mxGeometry x="20" y="140" width="120" height="30" as="geometry" />
        </mxCell>
        
        <mxCell id="student-profile" value="Create Profile&#xa;• Name&#xa;• Role (Frontend/Backend)&#xa;• Skill Level" style="rounded=1;whiteSpace=wrap;html=1;fillColor=#BBDEFB;strokeColor=#1976D2;fontSize=10;align=left;spacingLeft=10;" vertex="1" parent="1">
          <mxGeometry x="50" y="180" width="130" height="60" as="geometry" />
        </mxCell>
        
        <mxCell id="csv-processing" value="CSV Data Processing&#xa;• Upload scenarios.csv&#xa;• Upload resources.csv&#xa;• Vector embedding&#xa;• Store in Weaviate" style="rounded=1;whiteSpace=wrap;html=1;fillColor=#C8E6C9;strokeColor=#388E3C;fontSize=10;align=left;spacingLeft=10;" vertex="1" parent="1">
          <mxGeometry x="200" y="180" width="150" height="60" as="geometry" />
        </mxCell>
        
        <mxCell id="data-validation" value="Data Validation&#xa;• Check CSV format&#xa;• Validate columns&#xa;• Error handling" style="rounded=1;whiteSpace=wrap;html=1;fillColor=#C8E6C9;strokeColor=#388E3C;fontSize=10;align=left;spacingLeft=10;" vertex="1" parent="1">
          <mxGeometry x="370" y="180" width="130" height="60" as="geometry" />
        </mxCell>
        
        <!-- Phase 2: Generation -->
        <mxCell id="phase2-label" value="PHASE 2: GENERATION" style="text;html=1;strokeColor=none;fillColor=#FFF3E0;align=center;verticalAlign=middle;whiteSpace=wrap;rounded=1;fontSize=12;fontStyle=1;" vertex="1" parent="1">
          <mxGeometry x="20" y="270" width="120" height="30" as="geometry" />
        </mxCell>
        
        <mxCell id="scenario-gen" value="Scenario Generation&#xa;• RAG search&#xa;• LLM processing&#xa;• Context retrieval" style="rounded=1;whiteSpace=wrap;html=1;fillColor=#FFCDD2;strokeColor=#C62828;fontSize=10;align=left;spacingLeft=10;" vertex="1" parent="1">
          <mxGeometry x="800" y="310" width="130" height="60" as="geometry" />
        </mxCell>
        
        <mxCell id="challenge-adapt" value="Challenge Adaptation&#xa;• Difficulty scaling&#xa;• Time constraints&#xa;• Requirements setting" style="rounded=1;whiteSpace=wrap;html=1;fillColor=#FFCDD2;strokeColor=#C62828;fontSize=10;align=left;spacingLeft=10;" vertex="1" parent="1">
          <mxGeometry x="950" y="310" width="130" height="60" as="geometry" />
        </mxCell>
        
        <mxCell id="scenario-display" value="Scenario Display&#xa;• Format challenge&#xa;• Show requirements&#xa;• Set timer" style="rounded=1;whiteSpace=wrap;html=1;fillColor=#C8E6C9;strokeColor=#388E3C;fontSize=10;align=left;spacingLeft=10;" vertex="1" parent="1">
          <mxGeometry x="520" y="310" width="130" height="60" as="geometry" />
        </mxCell>
        
        <mxCell id="scenario-select" value="Select Scenario&#xa;• Choose from 3 options&#xa;• Read requirements&#xa;• Start challenge" style="rounded=1;whiteSpace=wrap;html=1;fillColor=#BBDEFB;strokeColor=#1976D2;fontSize=10;align=left;spacingLeft=10;" vertex="1" parent="1">
          <mxGeometry x="50" y="310" width="130" height="60" as="geometry" />
        </mxCell>
        
        <!-- Phase 3: Collection -->
        <mxCell id="phase3-label" value="PHASE 3: COLLECTION" style="text;html=1;strokeColor=none;fillColor=#FFF3E0;align=center;verticalAlign=middle;whiteSpace=wrap;rounded=1;fontSize=12;fontStyle=1;" vertex="1" parent="1">
          <mxGeometry x="20" y="400" width="120" height="30" as="geometry" />
        </mxCell>
        
        <mxCell id="response-submit" value="Submit Response&#xa;• Upload code files&#xa;• Text explanations&#xa;• Design documents" style="rounded=1;whiteSpace=wrap;html=1;fillColor=#BBDEFB;strokeColor=#1976D2;fontSize=10;align=left;spacingLeft=10;" vertex="1" parent="1">
          <mxGeometry x="50" y="440" width="130" height="60" as="geometry" />
        </mxCell>
        
        <mxCell id="response-process" value="Response Processing&#xa;• File type detection&#xa;• Content validation&#xa;• Structure analysis" style="rounded=1;whiteSpace=wrap;html=1;fillColor=#C8E6C9;strokeColor=#388E3C;fontSize=10;align=left;spacingLeft=10;" vertex="1" parent="1">
          <mxGeometry x="200" y="440" width="150" height="60" as="geometry" />
        </mxCell>
        
        <mxCell id="response-collect" value="Response Collection&#xa;• Organize data&#xa;• Generate statistics&#xa;• Prepare for evaluation" style="rounded=1;whiteSpace=wrap;html=1;fillColor=#FFCDD2;strokeColor=#C62828;fontSize=10;align=left;spacingLeft=10;" vertex="1" parent="1">
          <mxGeometry x="800" y="440" width="130" height="60" as="geometry" />
        </mxCell>
        
        <!-- Phase 4: Evaluation -->
        <mxCell id="phase4-label" value="PHASE 4: EVALUATION" style="text;html=1;strokeColor=none;fillColor=#FFF3E0;align=center;verticalAlign=middle;whiteSpace=wrap;rounded=1;fontSize=12;fontStyle=1;" vertex="1" parent="1">
          <mxGeometry x="20" y="530" width="120" height="30" as="geometry" />
        </mxCell>
        
        <mxCell id="llm-eval" value="LLM Evaluation&#xa;• Apply rubrics&#xa;• Score 4 criteria&#xa;• Generate feedback" style="rounded=1;whiteSpace=wrap;html=1;fillColor=#FFCDD2;strokeColor=#C62828;fontSize=10;align=left;spacingLeft=10;" vertex="1" parent="1">
          <mxGeometry x="800" y="570" width="130" height="60" as="geometry" />
        </mxCell>
        
        <mxCell id="gap-analysis" value="Gap Analysis&#xa;• Identify weaknesses&#xa;• Categorize gaps&#xa;• Set priorities" style="rounded=1;whiteSpace=wrap;html=1;fillColor=#FFCDD2;strokeColor=#C62828;fontSize=10;align=left;spacingLeft=10;" vertex="1" parent="1">
          <mxGeometry x="950" y="570" width="130" height="60" as="geometry" />
        </mxCell>
        
        <mxCell id="score-calc" value="Score Calculation&#xa;• Convert to grades&#xa;• Performance metrics&#xa;• Summary statistics" style="rounded=1;whiteSpace=wrap;html=1;fillColor=#C8E6C9;strokeColor=#388E3C;fontSize=10;align=left;spacingLeft=10;" vertex="1" parent="1">
          <mxGeometry x="370" y="570" width="130" height="60" as="geometry" />
        </mxCell>
        
        <!-- Phase 5: Recommendations -->
        <mxCell id="phase5-label" value="PHASE 5: RECOMMENDATIONS" style="text;html=1;strokeColor=none;fillColor=#FFF3E0;align=center;verticalAlign=middle;whiteSpace=wrap;rounded=1;fontSize=12;fontStyle=1;" vertex="1" parent="1">
          <mxGeometry x="20" y="660" width="120" height="30" as="geometry" />
        </mxCell>
        
        <mxCell id="training-rec" value="Training Recommendations&#xa;• RAG resource search&#xa;• Match to gaps&#xa;• Create learning paths" style="rounded=1;whiteSpace=wrap;html=1;fillColor=#FFCDD2;strokeColor=#C62828;fontSize=10;align=left;spacingLeft=10;" vertex="1" parent="1">
          <mxGeometry x="800" y="700" width="130" height="60" as="geometry" />
        </mxCell>
        
        <mxCell id="results-format" value="Results Formatting&#xa;• Dashboard layout&#xa;• Progress visualization&#xa;• Recommendation display" style="rounded=1;whiteSpace=wrap;html=1;fillColor=#C8E6C9;strokeColor=#388E3C;fontSize=10;align=left;spacingLeft=10;" vertex="1" parent="1">
          <mxGeometry x="520" y="700" width="130" height="60" as="geometry" />
        </mxCell>
        
        <mxCell id="results-view" value="View Results&#xa;• Assessment scores&#xa;• Skill gap analysis&#xa;• Learning roadmap" style="rounded=1;whiteSpace=wrap;html=1;fillColor=#BBDEFB;strokeColor=#1976D2;fontSize=10;align=left;spacingLeft=10;" vertex="1" parent="1">
          <mxGeometry x="50" y="700" width="130" height="60" as="geometry" />
        </mxCell>
        
        <!-- Flow Arrows -->
        <mxCell id="flow1" value="" style="edgeStyle=orthogonalEdgeStyle;rounded=0;orthogonalLoop=1;jettySize=auto;html=1;strokeWidth=2;strokeColor=#1976D2;" edge="1" parent="1" source="student-profile" target="csv-processing">
          <mxGeometry relative="1" as="geometry" />
        </mxCell>
        
        <mxCell id="flow2" value="" style="edgeStyle=orthogonalEdgeStyle;rounded=0;orthogonalLoop=1;jettySize=auto;html=1;strokeWidth=2;strokeColor=#388E3C;" edge="1" parent="1" source="csv-processing" target="data-validation">
          <mxGeometry relative="1" as="geometry" />
        </mxCell>
        
        <mxCell id="flow3" value="" style="edgeStyle=orthogonalEdgeStyle;rounded=0;orthogonalLoop=1;jettySize=auto;html=1;strokeWidth=2;strokeColor=#C62828;" edge="1" parent="1" source="data-validation" target="scenario-gen">
          <mxGeometry relative="1" as="geometry">
            <Array as="points">
              <mxPoint x="435" y="280" />
              <mxPoint x="865" y="280" />
            </Array>
          </mxGeometry>
        </mxCell>
        
        <mxCell id="flow4" value="" style="edgeStyle=orthogonalEdgeStyle;rounded=0;orthogonalLoop=1;jettySize=auto;html=1;strokeWidth=2;strokeColor=#C62828;" edge="1" parent="1" source="scenario-gen" target="challenge-adapt">
          <mxGeometry relative="1" as="geometry" />
        </mxCell>
        
        <mxCell id="flow5" value="" style="edgeStyle=orthogonalEdgeStyle;rounded=0;orthogonalLoop=1;jettySize=auto;html=1;strokeWidth=2;strokeColor=#388E3C;" edge="1" parent="1" source="challenge-adapt" target="scenario-display">
          <mxGeometry relative="1" as="geometry">
            <Array as="points">
              <mxPoint x="1015" y="290" />
              <mxPoint x="585" y="290" />
            </Array>
          </mxGeometry>
        </mxCell>
        
        <mxCell id="flow6" value="" style="edgeStyle=orthogonalEdgeStyle;rounded=0;orthogonalLoop=1;jettySize=auto;html=1;strokeWidth=2;strokeColor=#1976D2;" edge="1" parent="1" source="scenario-display" target="scenario-select">
          <mxGeometry relative="1" as="geometry">
            <Array as="points">
              <mxPoint x="585" y="280" />
              <mxPoint x="115" y="280" />
            </Array>
          </mxGeometry>
        </mxCell>
        
        <mxCell id="flow7" value="" style="edgeStyle=orthogonalEdgeStyle;rounded=0;orthogonalLoop=1;jettySize=auto;html=1;strokeWidth=2;strokeColor=#1976D2;" edge="1" parent="1" source="scenario-select" target="response-submit">
          <mxGeometry relative="1" as="geometry" />
        </mxCell>
        
        <mxCell id="flow8" value="" style="edgeStyle=orthogonalEdgeStyle;rounded=0;orthogonalLoop=1;jettySize=auto;html=1;strokeWidth=2;strokeColor=#388E3C;" edge="1" parent="1" source="response-submit" target="response-process">
          <mxGeometry relative="1" as="geometry" />
        </mxCell>
        
        <mxCell id="flow9" value="" style="edgeStyle=orthogonalEdgeStyle;rounded=0;orthogonalLoop=1;jettySize=auto;html=1;strokeWidth=2;strokeColor=#C62828;" edge="1" parent="1" source="response-process" target="response-collect">
          <mxGeometry relative="1" as="geometry">
            <Array as="points">
              <mxPoint x="275" y="410" />
              <mxPoint x="865" y="410" />
            </Array>
          </mxGeometry>
        </mxCell>
        
        <mxCell id="flow10" value="" style="edgeStyle=orthogonalEdgeStyle;rounded=0;orthogonalLoop=1;jettySize=auto;html=1;strokeWidth=2;strokeColor=#C62828;" edge="1" parent="1" source="response-collect" target="llm-eval">
          <mxGeometry relative="1" as="geometry" />
        </mxCell>
        
        <mxCell id="flow11" value="" style="edgeStyle=orthogonalEdgeStyle;rounded=0;orthogonalLoop=1;jettySize=auto;html=1;strokeWidth=2;strokeColor=#C62828;" edge="1" parent="1" source="llm-eval" target="gap-analysis">
          <mxGeometry relative="1" as="geometry" />
        </mxCell>
        
        <mxCell id="flow12" value="" style="edgeStyle=orthogonalEdgeStyle;rounded=0;orthogonalLoop=1;jettySize=auto;html=1;strokeWidth=2;strokeColor=#388E3C;" edge="1" parent="1" source="gap-analysis" target="score-calc">
          <mxGeometry relative="1" as="geometry">
            <Array as="points">
              <mxPoint x="1015" y="540" />
              <mxPoint x="435" y="540" />
            </Array>
          </mxGeometry>
        </mxCell>
        
        <mxCell id="flow13" value="" style="edgeStyle=orthogonalEdgeStyle;rounded=0;orthogonalLoop=1;jettySize=auto;html=1;strokeWidth=2;strokeColor=#C62828;" edge="1" parent="1" source="score-calc" target="training-rec">
          <mxGeometry relative="1" as="geometry">
            <Array as="points">
              <mxPoint x="435" y="670" />
              <mxPoint x="865" y="670" />
            </Array>
          </mxGeometry>
        </mxCell>
        
        <mxCell id="flow14" value="" style="edgeStyle=orthogonalEdgeStyle;rounded=0;orthogonalLoop=1;jettySize=auto;html=1;strokeWidth=2;strokeColor=#388E3C;" edge="1" parent="1" source="training-rec" target="results-format">
          <mxGeometry relative="1" as="geometry">
            <Array as="points">
              <mxPoint x="865" y="680" />
              <mxPoint x="585" y="680" />
            </Array>
          </mxGeometry>
        </mxCell>
        
        <mxCell id="flow15" value="" style="edgeStyle=orthogonalEdgeStyle;rounded=0;orthogonalLoop=1;jettySize=auto;html=1;strokeWidth=2;strokeColor=#1976D2;" edge="1" parent="1" source="results-format" target="results-view">
          <mxGeometry relative="1" as="geometry">
            <Array as="points">
              <mxPoint x="585" y="680" />
              <mxPoint x="115" y="680" />
            </Array>
          </mxGeometry>
        </mxCell>
        
      </root>
    </mxGraphModel>
  </diagram>
  
  <diagram name="4. Technical Component Architecture" id="page4">
    <mxGraphModel dx="1422" dy="794" grid="1" gridSize="10" guides="1" tooltips="1" connect="1" arrows="1" fold="1" page="1" pageScale="1" pageWidth="1169" pageHeight="827" math="0" shadow="0">
      <root>
        <mxCell id="0" />
        <mxCell id="1" parent="0" />
        
        <!-- Title -->
        <mxCell id="title4" value="Technical Component Architecture - Detailed Stack" style="text;html=1;strokeColor=none;fillColor=none;align=center;verticalAlign=middle;whiteSpace=wrap;rounded=0;fontSize=20;fontStyle=1;" vertex="1" parent="1">
          <mxGeometry x="300" y="20" width="570" height="40" as="geometry" />
        </mxCell>
        
        <!-- Presentation Layer -->
        <mxCell id="presentation-layer" value="PRESENTATION LAYER" style="rounded=1;whiteSpace=wrap;html=1;fillColor=#E3F2FD;strokeColor=#1976D2;fontSize=14;fontStyle=1;verticalAlign=top;spacingTop=10;" vertex="1" parent="1">
          <mxGeometry x="50" y="80" width="1070" height="100" as="geometry" />
        </mxCell>
        
        <mxCell id="react-comp" value="React Components&#xa;• FileUpload.jsx&#xa;• ScenarioSelector.jsx&#xa;• ResponseSubmission.jsx&#xa;• ResultsDashboard.jsx" style="rounded=1;whiteSpace=wrap;html=1;fillColor=#BBDEFB;strokeColor=#1976D2;fontSize=10;align=left;spacingLeft=10;" vertex="1" parent="1">
          <mxGeometry x="70" y="110" width="200" height="60" as="geometry" />
        </mxCell>
        
        <mxCell id="shadcn-ui" value="shadcn/ui Library&#xa;• Button, Input, Card&#xa;• Dialog, Alert&#xa;• Charts, Tables" style="rounded=1;whiteSpace=wrap;html=1;fillColor=#BBDEFB;strokeColor=#1976D2;fontSize=10;align=left;spacingLeft=10;" vertex="1" parent="1">
          <mxGeometry x="290" y="110" width="160" height="60" as="geometry" />
        </mxCell>
        
        <mxCell id="state-mgmt" value="State Management&#xa;• React Hooks&#xa;• Context API&#xa;• Local Storage" style="rounded=1;whiteSpace=wrap;html=1;fillColor=#BBDEFB;strokeColor=#1976D2;fontSize=10;align=left;spacingLeft=10;" vertex="1" parent="1">
          <mxGeometry x="470" y="110" width="140" height="60" as="geometry" />
        </mxCell>
        
        <mxCell id="api-integration" value="API Integration&#xa;• Axios client&#xa;• Error handling&#xa;• Loading states" style="rounded=1;whiteSpace=wrap;html=1;fillColor=#BBDEFB;strokeColor=#1976D2;fontSize=10;align=left;spacingLeft=10;" vertex="1" parent="1">
          <mxGeometry x="630" y="110" width="140" height="60" as="geometry" />
        </mxCell>
        
        <mxCell id="routing" value="Routing&#xa;• React Router&#xa;• Protected routes&#xa;• Navigation" style="rounded=1;whiteSpace=wrap;html=1;fillColor=#BBDEFB;strokeColor=#1976D2;fontSize=10;align=left;spacingLeft=10;" vertex="1" parent="1">
          <mxGeometry x="790" y="110" width="120" height="60" as="geometry" />
        </mxCell>
        
        <mxCell id="build-tools" value="Build Tools&#xa;• Vite&#xa;• Tailwind CSS&#xa;• TypeScript" style="rounded=1;whiteSpace=wrap;html=1;fillColor=#BBDEFB;strokeColor=#1976D2;fontSize=10;align=left;spacingLeft=10;" vertex="1" parent="1">
          <mxGeometry x="930" y="110" width="120" height="60" as="geometry" />
        </mxCell>
        
        <!-- API Layer -->
        <mxCell id="api-layer" value="API LAYER" style="rounded=1;whiteSpace=wrap;html=1;fillColor=#E8F5E8;strokeColor=#388E3C;fontSize=14;fontStyle=1;verticalAlign=top;spacingTop=10;" vertex="1" parent="1">
          <mxGeometry x="50" y="200" width="1070" height="80" as="geometry" />
        </mxCell>
        
        <mxCell id="fastapi-routes" value="FastAPI Routes&#xa;• /upload-csv&#xa;• /generate-scenarios&#xa;• /submit-response&#xa;• /get-results" style="rounded=1;whiteSpace=wrap;html=1;fillColor=#C8E6C9;strokeColor=#388E3C;fontSize=10;align=left;spacingLeft=10;" vertex="1" parent="1">
          <mxGeometry x="70" y="230" width="200" height="40" as="geometry" />
        </mxCell>
        
        <mxCell id="validation" value="Request Validation&#xa;• Pydantic models&#xa;• Input sanitization" style="rounded=1;whiteSpace=wrap;html=1;fillColor=#C8E6C9;strokeColor=#388E3C;fontSize=10;align=left;spacingLeft=10;" vertex="1" parent="1">
          <mxGeometry x="290" y="230" width="160" height="40" as="geometry" />
        </mxCell>
        
        <mxCell id="response-format" value="Response Formatting&#xa;• JSON serialization&#xa;• Error responses" style="rounded=1;whiteSpace=wrap;html=1;fillColor=#C8E6C9;strokeColor=#388E3C;fontSize=10;align=left;spacingLeft=10;" vertex="1" parent="1">
          <mxGeometry x="470" y="230" width="160" height="40" as="geometry" />
        </mxCell>
        
        <mxCell id="middleware" value="Middleware&#xa;• CORS handling&#xa;• Authentication&#xa;• Rate limiting" style="rounded=1;whiteSpace=wrap;html=1;fillColor=#C8E6C9;strokeColor=#388E3C;fontSize=10;align=left;spacingLeft=10;" vertex="1" parent="1">
          <mxGeometry x="650" y="230" width="140" height="40" as="geometry" />
        </mxCell>
        
        <mxCell id="error-handling" value="Error Handling&#xa;• Exception catching&#xa;• Logging&#xa;• User feedback" style="rounded=1;whiteSpace=wrap;html=1;fillColor=#C8E6C9;strokeColor=#388E3C;fontSize=10;align=left;spacingLeft=10;" vertex="1" parent="1">
          <mxGeometry x="810" y="230" width="140" height="40" as="geometry" />
        </mxCell>
        
        <mxCell id="docs" value="API Documentation&#xa;• OpenAPI/Swagger&#xa;• Interactive docs&#xa;• Schema definitions" style="rounded=1;whiteSpace=wrap;html=1;fillColor=#C8E6C9;strokeColor=#388E3C;fontSize=10;align=left;spacingLeft=10;" vertex="1" parent="1">
          <mxGeometry x="970" y="230" width="140" height="40" as="geometry" />
        </mxCell>
        
        <!-- Business Logic Layer -->
        <mxCell id="business-layer" value="BUSINESS LOGIC LAYER" style="rounded=1;whiteSpace=wrap;html=1;fillColor=#FFEBEE;strokeColor=#C62828;fontSize=14;fontStyle=1;verticalAlign=top;spacingTop=10;" vertex="1" parent="1">
          <mxGeometry x="50" y="300" width="1070" height="120" as="geometry" />
        </mxCell>
        
        <mxCell id="crewai-framework" value="CrewAI Framework&#xa;• Agent orchestration&#xa;• Task coordination&#xa;• Workflow management&#xa;• Sequential processing" style="rounded=1;whiteSpace=wrap;html=1;fillColor=#FFCDD2;strokeColor=#C62828;fontSize=10;align=left;spacingLeft=10;" vertex="1" parent="1">
          <mxGeometry x="70" y="330" width="180" height="80" as="geometry" />
        </mxCell>
        
        <mxCell id="agent-tasks" value="Agent Tasks&#xa;• Scenario generation&#xa;• Challenge adaptation&#xa;• Response collection&#xa;• Evaluation processing&#xa;• Gap analysis&#xa;• Training recommendations" style="rounded=1;whiteSpace=wrap;html=1;fillColor=#FFCDD2;strokeColor=#C62828;fontSize=10;align=left;spacingLeft=10;" vertex="1" parent="1">
          <mxGeometry x="270" y="330" width="180" height="80" as="geometry" />
        </mxCell>
        
        <mxCell id="workflow-mgmt" value="Workflow Management&#xa;• Sequential execution&#xa;• Data passing&#xa;• Error recovery&#xa;• State tracking" style="rounded=1;whiteSpace=wrap;html=1;fillColor=#FFCDD2;strokeColor=#C62828;fontSize=10;align=left;spacingLeft=10;" vertex="1" parent="1">
          <mxGeometry x="470" y="330" width="160" height="80" as="geometry" />
        </mxCell>
        
        <mxCell id="business-rules" value="Business Rules&#xa;• Scoring algorithms&#xa;• Difficulty scaling&#xa;• Gap categorization&#xa;• Recommendation logic" style="rounded=1;whiteSpace=wrap;html=1;fillColor=#FFCDD2;strokeColor=#C62828;fontSize=10;align=left;spacingLeft=10;" vertex="1" parent="1">
          <mxGeometry x="650" y="330" width="160" height="80" as="geometry" />
        </mxCell>
        
        <mxCell id="result-processing" value="Result Processing&#xa;• Score calculation&#xa;• Grade assignment&#xa;• Analytics generation&#xa;• Report formatting" style="rounded=1;whiteSpace=wrap;html=1;fillColor=#FFCDD2;strokeColor=#C62828;fontSize=10;align=left;spacingLeft=10;" vertex="1" parent="1">
          <mxGeometry x="830" y="330" width="160" height="80" as="geometry" />
        </mxCell>
        
        <mxCell id="config-mgmt" value="Configuration&#xa;• Environment settings&#xa;• LLM prompts&#xa;• Scoring rubrics&#xa;• System parameters" style="rounded=1;whiteSpace=wrap;html=1;fillColor=#FFCDD2;strokeColor=#C62828;fontSize=10;align=left;spacingLeft=10;" vertex="1" parent="1">
          <mxGeometry x="1010" y="330" width="140" height="80" as="geometry" />
        </mxCell>
        
        <!-- Service Layer -->
        <mxCell id="service-layer" value="SERVICE LAYER" style="rounded=1;whiteSpace=wrap;html=1;fillColor=#FFF3E0;strokeColor=#F57C00;fontSize=14;fontStyle=1;verticalAlign=top;spacingTop=10;" vertex="1" parent="1">
          <mxGeometry x="50" y="440" width="1070" height="100" as="geometry" />
        </mxCell>
        
        <mxCell id="llm-service" value="LLM Service&#xa;• Gemini API integration&#xa;• Prompt management&#xa;• Response processing&#xa;• Rate limiting" style="rounded=1;whiteSpace=wrap;html=1;fillColor=#FFE0B2;strokeColor=#F57C00;fontSize=10;align=left;spacingLeft=10;" vertex="1" parent="1">
          <mxGeometry x="70" y="470" width="160" height="60" as="geometry" />
        </mxCell>
        
        <mxCell id="vector-service" value="Vector Search&#xa;• Weaviate client&#xa;• Embedding generation&#xa;• Similarity search&#xa;• Collection management" style="rounded=1;whiteSpace=wrap;html=1;fillColor=#FFE0B2;strokeColor=#F57C00;fontSize=10;align=left;spacingLeft=10;" vertex="1" parent="1">
          <mxGeometry x="250" y="470" width="160" height="60" as="geometry" />
        </mxCell>
        
        <mxCell id="csv-service" value="CSV Processing&#xa;• File parsing&#xa;• Data validation&#xa;• Schema checking&#xa;• Batch processing" style="rounded=1;whiteSpace=wrap;html=1;fillColor=#FFE0B2;strokeColor=#F57C00;fontSize=10;align=left;spacingLeft=10;" vertex="1" parent="1">
          <mxGeometry x="430" y="470" width="160" height="60" as="geometry" />
        </mxCell>
        
        <mxCell id="data-validation-service" value="Data Validation&#xa;• Input sanitization&#xa;• Type checking&#xa;• Business rule validation&#xa;• Security scanning" style="rounded=1;whiteSpace=wrap;html=1;fillColor=#FFE0B2;strokeColor=#F57C00;fontSize=10;align=left;spacingLeft=10;" vertex="1" parent="1">
          <mxGeometry x="610" y="470" width="160" height="60" as="geometry" />
        </mxCell>
        
        <mxCell id="file-service" value="File Management&#xa;• Upload handling&#xa;• File storage&#xa;• Type detection&#xa;• Size validation" style="rounded=1;whiteSpace=wrap;html=1;fillColor=#FFE0B2;strokeColor=#F57C00;fontSize=10;align=left;spacingLeft=10;" vertex="1" parent="1">
          <mxGeometry x="790" y="470" width="150" height="60" as="geometry" />
        </mxCell>
        
        <mxCell id="analytics-service" value="Analytics Service&#xa;• Performance metrics&#xa;• Usage tracking&#xa;• Report generation&#xa;• Data aggregation" style="rounded=1;whiteSpace=wrap;html=1;fillColor=#FFE0B2;strokeColor=#F57C00;fontSize=10;align=left;spacingLeft=10;" vertex="1" parent="1">
          <mxGeometry x="960" y="470" width="150" height="60" as="geometry" />
        </mxCell>
        
        <!-- Data Layer -->
        <mxCell id="data-layer" value="DATA LAYER" style="rounded=1;whiteSpace=wrap;html=1;fillColor=#E8EAF6;strokeColor=#3F51B5;fontSize=14;fontStyle=1;verticalAlign=top;spacingTop=10;" vertex="1" parent="1">
          <mxGeometry x="50" y="560" width="1070" height="120" as="geometry" />
        </mxCell>
        
        <mxCell id="weaviate-cloud" value="Weaviate Cloud&#xa;• Vector database&#xa;• Similarity search&#xa;• Auto-vectorization&#xa;• Cloud hosting&#xa;• REST + GraphQL APIs" style="shape=cylinder3;whiteSpace=wrap;html=1;boundedLbl=1;backgroundOutline=1;size=15;fillColor=#C5CAE9;strokeColor=#3F51B5;fontSize=10;align=left;spacingLeft=10;" vertex="1" parent="1">
          <mxGeometry x="70" y="590" width="200" height="80" as="geometry" />
        </mxCell>
        
        <mxCell id="scenarios-db" value="Scenarios Collection&#xa;• Vector embeddings&#xa;• Metadata storage&#xa;• Role-based indexing&#xa;• Difficulty tagging" style="shape=cylinder3;whiteSpace=wrap;html=1;boundedLbl=1;backgroundOutline=1;size=15;fillColor=#C5CAE9;strokeColor=#3F51B5;fontSize=10;align=left;spacingLeft=10;" vertex="1" parent="1">
          <mxGeometry x="290" y="590" width="180" height="80" as="geometry" />
        </mxCell>
        
        <mxCell id="resources-db" value="Training Resources&#xa;• Resource embeddings&#xa;• Skill mapping&#xa;• Type categorization&#xa;• Quality scoring" style="shape=cylinder3;whiteSpace=wrap;html=1;boundedLbl=1;backgroundOutline=1;size=15;fillColor=#C5CAE9;strokeColor=#3F51B5;fontSize=10;align=left;spacingLeft=10;" vertex="1" parent="1">
          <mxGeometry x="490" y="590" width="180" height="80" as="geometry" />
        </mxCell>
        
        <mxCell id="temp-storage" value="Temporary Storage&#xa;• Session data&#xa;• Response cache&#xa;• Processing queue&#xa;• Intermediate results" style="rounded=1;whiteSpace=wrap;html=1;fillColor=#C5CAE9;strokeColor=#3F51B5;fontSize=10;align=left;spacingLeft=10;" vertex="1" parent="1">
          <mxGeometry x="690" y="590" width="160" height="80" as="geometry" />
        </mxCell>
        
        <mxCell id="config-storage" value="Configuration&#xa;• Environment variables&#xa;• API keys&#xa;• System settings&#xa;• Feature flags" style="rounded=1;whiteSpace=wrap;html=1;fillColor=#C5CAE9;strokeColor=#3F51B5;fontSize=10;align=left;spacingLeft=10;" vertex="1" parent="1">
          <mxGeometry x="870" y="590" width="140" height="80" as="geometry" />
        </mxCell>
        
        <mxCell id="csv-storage" value="CSV Files&#xa;• scenarios.csv&#xa;• training_resources.csv&#xa;• students.csv&#xa;• Backup storage" style="rounded=1;whiteSpace=wrap;html=1;fillColor=#C5CAE9;strokeColor=#3F51B5;fontSize=10;align=left;spacingLeft=10;" vertex="1" parent="1">
          <mxGeometry x="1030" y="590" width="140" height="80" as="geometry" />
        </mxCell>
        
        <!-- External Services -->
        <mxCell id="external-layer" value="EXTERNAL SERVICES" style="rounded=1;whiteSpace=wrap;html=1;fillColor=#EFEBE9;strokeColor=#5D4037;fontSize=14;fontStyle=1;verticalAlign=top;spacingTop=10;" vertex="1" parent="1">
          <mxGeometry x="50" y="700" width="1070" height="80" as="geometry" />
        </mxCell>
        
        <mxCell id="gemini-api" value="Google Gemini API&#xa;• LLM processing&#xa;• Text generation&#xa;• Content analysis" style="ellipse;whiteSpace=wrap;html=1;fillColor=#D7CCC8;strokeColor=#5D4037;fontSize=10;" vertex="1" parent="1">
          <mxGeometry x="70" y="730" width="150" height="40" as="geometry" />
        </mxCell>
        
        <mxCell id="weaviate-api" value="Weaviate Cloud API&#xa;• Vector operations&#xa;• Data ingestion&#xa;• Query processing" style="ellipse;whiteSpace=wrap;html=1;fillColor=#D7CCC8;strokeColor=#5D4037;fontSize=10;" vertex="1" parent="1">
          <mxGeometry x="240" y="730" width="150" height="40" as="geometry" />
        </mxCell>
        
        <mxCell id="monitoring" value="Monitoring Services&#xa;• Application logs&#xa;• Performance metrics&#xa;• Error tracking" style="ellipse;whiteSpace=wrap;html=1;fillColor=#D7CCC8;strokeColor=#5D4037;fontSize=10;" vertex="1" parent="1">
          <mxGeometry x="410" y="730" width="150" height="40" as="geometry" />
        </mxCell>
        
        <mxCell id="auth-service" value="Authentication&#xa;• User management&#xa;• Session handling&#xa;• Security tokens" style="ellipse;whiteSpace=wrap;html=1;fillColor=#D7CCC8;strokeColor=#5D4037;fontSize=10;" vertex="1" parent="1">
          <mxGeometry x="580" y="730" width="130" height="40" as="geometry" />
        </mxCell>
        
        <mxCell id="cdn" value="CDN Services&#xa;• Static assets&#xa;• File delivery&#xa;• Caching" style="ellipse;whiteSpace=wrap;html=1;fillColor=#D7CCC8;strokeColor=#5D4037;fontSize=10;" vertex="1" parent="1">
          <mxGeometry x="730" y="730" width="120" height="40" as="geometry" />
        </mxCell>
        
        <mxCell id="deployment" value="Deployment&#xa;• Docker containers&#xa;• Cloud hosting&#xa;• CI/CD pipeline" style="ellipse;whiteSpace=wrap;html=1;fillColor=#D7CCC8;strokeColor=#5D4037;fontSize=10;" vertex="1" parent="1">
          <mxGeometry x="870" y="730" width="130" height="40" as="geometry" />
        </mxCell>
        
        <mxCell id="backup" value="Backup Services&#xa;• Data backup&#xa;• Disaster recovery&#xa;• Version control" style="ellipse;whiteSpace=wrap;html=1;fillColor=#D7CCC8;strokeColor=#5D4037;fontSize=10;" vertex="1" parent="1">
          <mxGeometry x="1020" y="730" width="130" height="40" as="geometry" />
        </mxCell>
        
        <!-- Layer Dependencies -->
        <mxCell id="dep1" value="" style="edgeStyle=orthogonalEdgeStyle;rounded=0;orthogonalLoop=1;jettySize=auto;html=1;strokeWidth=3;strokeColor=#1976D2;dashed=1;" edge="1" parent="1">
          <mxGeometry relative="1" as="geometry">
            <mxPoint x="585" y="180" as="sourcePoint" />
            <mxPoint x="585" y="200" as="targetPoint" />
          </mxGeometry>
        </mxCell>
        
        <mxCell id="dep2" value="" style="edgeStyle=orthogonalEdgeStyle;rounded=0;orthogonalLoop=1;jettySize=auto;html=1;strokeWidth=3;strokeColor=#388E3C;dashed=1;" edge="1" parent="1">
          <mxGeometry relative="1" as="geometry">
            <mxPoint x="585" y="280" as="sourcePoint" />
            <mxPoint x="585" y="300" as="targetPoint" />
          </mxGeometry>
        </mxCell>
        
        <mxCell id="dep3" value="" style="edgeStyle=orthogonalEdgeStyle;rounded=0;orthogonalLoop=1;jettySize=auto;html=1;strokeWidth=3;strokeColor=#C62828;dashed=1;" edge="1" parent="1">
          <mxGeometry relative="1" as="geometry">
            <mxPoint x="585" y="420" as="sourcePoint" />
            <mxPoint x="585" y="440" as="targetPoint" />
          </mxGeometry>
        </mxCell>
        
        <mxCell id="dep4" value="" style="edgeStyle=orthogonalEdgeStyle;rounded=0;orthogonalLoop=1;jettySize=auto;html=1;strokeWidth=3;strokeColor=#F57C00;dashed=1;" edge="1" parent="1">
          <mxGeometry relative="1" as="geometry">
            <mxPoint x="585" y="540" as="sourcePoint" />
            <mxPoint x="585" y="560" as="targetPoint" />
          </mxGeometry>
        </mxCell>
        
        <mxCell id="dep5" value="" style="edgeStyle=orthogonalEdgeStyle;rounded=0;orthogonalLoop=1;jettySize=auto;html=1;strokeWidth=3;strokeColor=#3F51B5;dashed=1;" edge="1" parent="1">
          <mxGeometry relative="1" as="geometry">
            <mxPoint x="585" y="680" as="sourcePoint" />
            <mxPoint x="585" y="700" as="targetPoint" />
          </mxGeometry>
        </mxCell>
        
        <!-- Technology Stack Labels -->
        <mxCell id="tech-stack" value="TECHNOLOGY STACK" style="rounded=1;whiteSpace=wrap;html=1;fillColor=#F5F5F5;strokeColor=#666666;fontSize=12;fontStyle=1;verticalAlign=top;spacingTop=10;" vertex="1" parent="1">
          <mxGeometry x="1200" y="80" width="200" height="600" as="geometry" />
        </mxCell>
        
        <mxCell id="frontend-tech" value="Frontend&#xa;• React 18&#xa;• TypeScript&#xa;• Tailwind CSS&#xa;• Vite&#xa;• shadcn/ui" style="rounded=1;whiteSpace=wrap;html=1;fillColor=#E3F2FD;strokeColor=#1976D2;fontSize=10;align=left;spacingLeft=10;" vertex="1" parent="1">
          <mxGeometry x="1220" y="110" width="160" height="60" as="geometry" />
        </mxCell>
        
        <mxCell id="backend-tech" value="Backend&#xa;• Python 3.12&#xa;• FastAPI&#xa;• Pydantic&#xa;• Uvicorn" style="rounded=1;whiteSpace=wrap;html=1;fillColor=#E8F5E8;strokeColor=#388E3C;fontSize=10;align=left;spacingLeft=10;" vertex="1" parent="1">
          <mxGeometry x="1220" y="180" width="160" height="60" as="geometry" />
        </mxCell>
        
        <mxCell id="ai-tech" value="AI/ML&#xa;• CrewAI&#xa;• Google Gemini&#xa;• Vector embeddings&#xa;• RAG" style="rounded=1;whiteSpace=wrap;html=1;fillColor=#FFEBEE;strokeColor=#C62828;fontSize=10;align=left;spacingLeft=10;" vertex="1" parent="1">
          <mxGeometry x="1220" y="250" width="160" height="60" as="geometry" />
        </mxCell>
        
        <mxCell id="database-tech" value="Database&#xa;• Weaviate Cloud&#xa;• Vector DB&#xa;• GraphQL&#xa;• REST API" style="rounded=1;whiteSpace=wrap;html=1;fillColor=#E8EAF6;strokeColor=#3F51B5;fontSize=10;align=left;spacingLeft=10;" vertex="1" parent="1">
          <mxGeometry x="1220" y="320" width="160" height="60" as="geometry" />
        </mxCell>
        
        <mxCell id="tools-tech" value="Tools&#xa;• Git&#xa;• Docker&#xa;• VS Code&#xa;• Postman" style="rounded=1;whiteSpace=wrap;html=1;fillColor=#FFF3E0;strokeColor=#F57C00;fontSize=10;align=left;spacingLeft=10;" vertex="1" parent="1">
          <mxGeometry x="1220" y="390" width="160" height="60" as="geometry" />
        </mxCell>
        
        <mxCell id="deployment-tech" value="Deployment&#xa;• Cloud hosting&#xa;• Environment variables&#xa;• CI/CD&#xa;• Monitoring" style="rounded=1;whiteSpace=wrap;html=1;fillColor=#EFEBE9;strokeColor=#5D4037;fontSize=10;align=left;spacingLeft=10;" vertex="1" parent="1">
          <mxGeometry x="1220" y="460" width="160" height="60" as="geometry" />
        </mxCell>
        
      </root>
    </mxGraphModel>
  </diagram>
</mxfile>